<svg xmlns="http://www.w3.org/2000/svg" viewBox="0 0 420 220" role="img" aria-labelledby="title desc">
  <title id="title">シマエナガのブランドシンボル</title>
  <desc id="desc">雪の枝にとまる二羽のシマエナガを控えめに描いた線画</desc>
  <defs>
    <linearGradient id="birdBody" x1="0" x2="0" y1="0" y2="1">
      <stop offset="0" stop-color="#ffffff"/>
      <stop offset="1" stop-color="#e9eff0"/>
    </linearGradient>
    <filter id="softShadow" x="-20%" y="-20%" width="140%" height="150%">
      <feDropShadow dx="0" dy="10" stdDeviation="10" flood-color="#172833" flood-opacity=".18"/>
    </filter>
  </defs>
  <path d="M55 169c46-5 93-14 138-27 67-20 119-30 174-23" fill="none" stroke="#8a6a4e" stroke-width="8" stroke-linecap="round"/>
  <path d="M91 149c18 12 34 22 51 33" fill="none" stroke="#8a6a4e" stroke-width="5" stroke-linecap="round"/>
  <path d="M261 131c21 16 39 30 58 46" fill="none" stroke="#8a6a4e" stroke-width="5" stroke-linecap="round"/>
  <g filter="url(#softShadow)">
    <g transform="translate(108 56)">
      <ellipse cx="58" cy="70" rx="46" ry="54" fill="url(#birdBody)"/>
      <circle cx="39" cy="50" r="5" fill="#172833"/>
      <circle cx="77" cy="50" r="5" fill="#172833"/>
      <path d="M54 60l8 4-8 4z" fill="#c49b70"/>
      <path d="M20 72c-16 3-27 11-34 22" fill="none" stroke="#dbe4e5" stroke-width="12" stroke-linecap="round"/>
      <path d="M43 121c10 8 20 8 31 0" fill="none" stroke="#9c7554" stroke-width="4" stroke-linecap="round"/>
    </g>
    <g transform="translate(214 44)">
      <ellipse cx="56" cy="73" rx="44" ry="52" fill="url(#birdBody)"/>
      <circle cx="38" cy="54" r="5" fill="#172833"/>
      <circle cx="75" cy="54" r="5" fill="#172833"/>
      <path d="M52 64l8 4-8 4z" fill="#c49b70"/>
      <path d="M90 74c15 4 26 13 32 25" fill="none" stroke="#dbe4e5" stroke-width="12" stroke-linecap="round"/>
      <path d="M42 124c10 7 19 7 29 0" fill="none" stroke="#9c7554" stroke-width="4" stroke-linecap="round"/>
    </g>
  </g>
  <path d="M79 156c14-5 29-9 45-12M333 126c13 1 26 4 39 9" fill="none" stroke="#dfe9e7" stroke-width="5" stroke-linecap="round"/>
</svg>
